PathFileType	4	(X/Y/Z)	C:\Users\willi\Desktop\Data_PaperCallum_v2\17_Akif\Gait02\marker_experimental_temp.trc
DataRate	CameraRate	NumFrames	NumMarkers	Units	OrigDataRate	OrigDataStartFrame	OrigNumFrames
100.000000	100.000000	4	27	mm	100.000000	83	167
Frame#	Time	C7			T10			Clav			Sternum			Right_Back			PCL_CRAN			PCL_RECHTS			PCL_LINKS			RCL_UL_CRAN			RCL_UL_POST			RCL_UL_ANT			RCL_LL_CRAN			RCL_LL_POST			RCL_LL_ANT			Right_Heel			Right_Toe			Right_M5			LCL_UL_CRAN			LCL_UL_POST			LCL_UL_ANT			LCL_LL_CRAN			LCL_LL_POST			LCL_LL_ANT			Left_Heel			Left_Toe			Left_M5			*26			
		X1	Y1	Z1	X2	Y2	Z2	X3	Y3	Z3	X4	Y4	Z4	X5	Y5	Z5	X6	Y6	Z6	X7	Y7	Z7	X8	Y8	Z8	X9	Y9	Z9	X10	Y10	Z10	X11	Y11	Z11	X12	Y12	Z12	X13	Y13	Z13	X14	Y14	Z14	X15	Y15	Z15	X16	Y16	Z16	X17	Y17	Z17	X18	Y18	Z18	X19	Y19	Z19	X20	Y20	Z20	X21	Y21	Z21	X22	Y22	Z22	X23	Y23	Z23	X24	Y24	Z24	X25	Y25	Z25	X26	Y26	Z26	X27	Y27	Z27	

84	0.8300000000000001	354.0973205566405	1407.697143554688	199.7948455810547	396.5164489746093	1192.172607421875	201.3565826416015	214.4000549316405	1331.156494140625	211.4070129394531	160.3418731689453	1166.904296875	232.7702178955078	384.2702636718749	1342.8828125	86.43141937255857	386.8867187499999	1018.998107910156	191.6216278076172	393.3585205078124	961.3755493164063	163.4719696044922	398.2825622558593	957.5120849609375	213.6104278564453	232.4445343017578	727.6402587890625	34.32474899291991	244.2609710693359	664.0794677734375	39.96067810058592	194.8812561035156	674.6243286132813	39.49661254882811	241.7071990966797	371.594970703125	75.36988067626952	266.7876892089844	311.7368469238281	70.13768005371092	217.1798706054687	310.6200561523438	82.04826354980467	330.1161804199219	30.53457832336428	159.228775024414	128.4419708251953	32.66951751708985	166.7245483398438	172.2347259521484	10.63951015472413	105.9499206542969	279.4958190917968	743.1719360351563	384.5013732910156	284.6477050781249	678.1867065429688	379.82861328125	238.7941436767578	692.4988403320313	392.6841430664063	323.3537292480469	404.9659423828125	387.4871520996094	384.2179565429688	380.8545227050781	380.5810241699219	348.3708190917969	345.8628234863281	375.9854125976563	613.9859619140625	236.1943664550782	270.6430053710937	502.8069458007813	78.16887664794925	295.2297973632812	552.3610229492188	95.28362274169925	342.8153991699218	-88.05564880371118	726.3922729492188	-3209.218505859375	
85	0.84	340.3051147460936	1409.161743164063	199.7941589355468	382.9179077148437	1193.671142578125	200.8420867919922	200.8162078857421	1332.549926757813	211.8684692382813	146.9495697021484	1168.190307617188	233.0553741455078	369.9351806640624	1344.674194335938	85.91324615478513	373.6921386718749	1020.46728515625	191.7420349121093	380.2312622070312	962.6921997070313	163.9313659667968	385.1287231445312	959.1290893554688	214.0955505371093	223.2112884521484	727.9296875	35.47570419311522	235.8238830566406	664.5419311523438	41.02278518676756	186.3731384277343	674.3350219726563	40.2587547302246	239.4185943603515	371.7557067871094	76.0763473510742	264.6356506347656	312.259521484375	69.98905181884764	215.3310394287109	310.5832214355469	82.6337432861328	330.07421875	30.83091926574709	159.5354614257812	128.3424987792969	32.56790924072266	166.6642608642578	172.2361755371094	10.60942268371583	105.9381408691406	261.4354553222656	745.7942504882813	385.4288024902344	264.9399108886718	680.775634765625	380.7968139648438	219.4898529052734	696.2406616210938	393.7266540527344	296.2916564941406	407.6229248046875	387.8503723144531	356.3014831542969	381.8528137207031	379.9095764160156	319.5503845214844	347.7071838378906	377.7906494140625	582.3809814453125	227.9765167236328	270.4288940429687	461.9306945800781	77.06647491455081	299.697509765625	512.6149291992188	92.7820739746094	346.4593200683593	-88.05567169189477	726.3921508789063	-3209.218994140625	
86	0.85	326.5586853027343	1410.385620117188	199.8347930908203	369.3710937499999	1194.928955078125	200.4058837890625	187.2779846191405	1333.701782226563	212.3634490966797	133.5771484374999	1169.241455078125	233.3232269287109	355.6531372070312	1346.222412109375	85.44645690917966	360.5568542480468	1021.714599609375	191.9861602783203	367.1819458007812	963.78076171875	164.5377502441406	372.0321350097656	960.53369140625	214.7256164550781	214.1679687499999	728.0396728515625	36.62327194213866	227.616714477539	664.819580078125	42.19884872436522	178.07568359375	673.8702392578125	40.99017333984374	237.1856384277343	371.93359375	76.79847717285155	262.8175048828125	312.7596435546875	70.22177886962889	213.6650695800781	310.5401916503906	83.34983062744139	330.0213317871094	31.17563247680666	159.9021911621093	128.2336730957031	32.48281860351563	166.6213226318359	172.2416229248047	10.62369346618653	105.9449462890625	243.4971008300781	748.349853515625	386.3963012695313	245.4135284423828	683.2750244140625	381.754150390625	200.3735046386718	699.8898315429688	394.7642211914063	269.5260925292969	410.0089111328125	387.9732666015625	328.4075927734375	382.157958984375	379.1029663085938	290.5548095703125	349.0911560058594	379.6433410644531	549.6743774414063	218.0730590820313	270.3449401855468	420.0170593261719	75.284782409668	303.9745483398438	471.7119750976563	89.31356048583987	350.0025939941406	-88.05570983886743	726.39208984375	-3209.219482421875	
87	0.86	312.8494873046874	1411.352416992188	199.9169616699218	355.8668823242187	1195.930541992188	200.0614471435547	173.7733612060546	1334.597045898438	212.8910064697266	120.2125091552734	1170.04248046875	233.5773468017578	341.4167175292968	1347.506591796875	85.03526306152342	347.4678344726562	1022.71923828125	192.3622589111328	354.1968383789062	964.6253662109375	165.2891235351562	358.9766235351562	961.700927734375	215.4993591308593	205.2680664062499	727.9684448242188	37.768497467041	219.615737915039	664.9249267578125	43.46313858032225	169.9638977050781	673.219482421875	41.76310348510741	234.9971008300781	372.1067504882813	77.52182769775389	261.3316955566406	313.2102661132813	70.92187499999999	212.172134399414	310.4681701660156	84.1952667236328	329.9690856933594	31.56808280944826	160.3284912109375	128.1231384277344	32.41068649291993	166.6043243408203	172.2521209716797	10.68208789825441	105.976577758789	225.6862182617187	750.7804565429688	387.3943786621094	226.112060546875	685.6287841796875	382.7184753417969	181.4605865478515	703.37744140625	395.7637023925781	243.0188140869141	411.9565734863281	387.9195556640625	300.5313720703125	381.7068176269531	378.3141479492188	261.4627685546875	349.9695129394531	381.3056030273438	515.8017578125	206.6631317138672	270.3896179199218	377.2247009277344	72.97065734863284	308.0623168945313	429.8253173828125	85.04326629638675	353.4317321777344	-88.05575561523462	726.3920288085938	-3209.219970703125	
